<?xml version="1.0" encoding="UTF-8" standalone="no"?>
<!-- Created with Inkscape (http://www.inkscape.org/) -->

<svg
   xmlns:dc="http://purl.org/dc/elements/1.1/"
   xmlns:cc="http://creativecommons.org/ns#"
   xmlns:rdf="http://www.w3.org/1999/02/22-rdf-syntax-ns#"
   xmlns:svg="http://www.w3.org/2000/svg"
   xmlns="http://www.w3.org/2000/svg"
   xmlns:xlink="http://www.w3.org/1999/xlink"
   xmlns:sodipodi="http://sodipodi.sourceforge.net/DTD/sodipodi-0.dtd"
   xmlns:inkscape="http://www.inkscape.org/namespaces/inkscape"
   width="1070"
   height="210"
   viewBox="0 0 1070 210"
   id="svg3004"
   version="1.1"
   inkscape:version="0.48.5 r10040"
   sodipodi:docname="brand.svg"
   inkscape:export-filename="/home/herman/Pictures/molview/trademark.png"
   inkscape:export-xdpi="180"
   inkscape:export-ydpi="180">
  <defs
     id="defs3006">
    <linearGradient
       id="linearGradient3918">
      <stop
         id="stop3920"
         offset="0"
         style="stop-color:#ffffff;stop-opacity:1;" />
      <stop
         style="stop-color:#ffffff;stop-opacity:1;"
         offset="0.5"
         id="stop3922" />
      <stop
         id="stop3933"
         offset="0.89999998"
         style="stop-color:#969696;stop-opacity:1;" />
      <stop
         id="stop3924"
         offset="1"
         style="stop-color:#646464;stop-opacity:1;" />
    </linearGradient>
    <linearGradient
       id="linearGradient3832">
      <stop
         style="stop-color:#ff9191;stop-opacity:1;"
         offset="0"
         id="stop3834" />
      <stop
         id="stop3916"
         offset="0.5"
         style="stop-color:#ff0d0d;stop-opacity:1;" />
      <stop
         style="stop-color:#c80000;stop-opacity:1;"
         offset="1"
         id="stop3836" />
    </linearGradient>
    <linearGradient
       id="linearGradient3814-2">
      <stop
         style="stop-color:#000000;stop-opacity:0.3764706;"
         offset="0"
         id="stop3816-9" />
      <stop
         style="stop-color:#000000;stop-opacity:0;"
         offset="1"
         id="stop3818-0" />
    </linearGradient>
    <linearGradient
       id="linearGradient3814">
      <stop
         style="stop-color:#ffffff;stop-opacity:1;"
         offset="0"
         id="stop3816" />
      <stop
         id="stop3912"
         offset="0.5"
         style="stop-color:#ffffff;stop-opacity:1;" />
      <stop
         style="stop-color:#969696;stop-opacity:1;"
         offset="0.89999998"
         id="stop3931" />
      <stop
         style="stop-color:#646464;stop-opacity:1;"
         offset="1"
         id="stop3818" />
    </linearGradient>
    <radialGradient
       inkscape:collect="always"
       xlink:href="#linearGradient3918"
       id="radialGradient6489"
       gradientUnits="userSpaceOnUse"
       gradientTransform="matrix(1.1111075,4.2782638e-8,-4.278271e-8,1.1111054,-0.54319037,-1.3456092)"
       cx="4.1888762"
       cy="12.111105"
       fx="4.1888762"
       fy="12.111105"
       r="3.5" />
    <radialGradient
       inkscape:collect="always"
       xlink:href="#linearGradient3832"
       id="radialGradient6491"
       gradientUnits="userSpaceOnUse"
       gradientTransform="matrix(1.5,0,0,1.5,0,-527.18115)"
       spreadMethod="pad"
       cx="7"
       cy="1043.3622"
       fx="7"
       fy="1043.3622"
       r="6" />
    <radialGradient
       inkscape:collect="always"
       xlink:href="#linearGradient3814-2"
       id="radialGradient6493"
       gradientUnits="userSpaceOnUse"
       gradientTransform="matrix(1.5,2.7085429e-5,-2.7084966e-5,1.4999743,0.02844843,-527.15448)"
       spreadMethod="pad"
       cx="8"
       cy="1050.3622"
       fx="8"
       fy="1050.3622"
       r="6" />
    <radialGradient
       inkscape:collect="always"
       xlink:href="#linearGradient3814"
       id="radialGradient6495"
       gradientUnits="userSpaceOnUse"
       gradientTransform="matrix(1.8180544,4.2401505e-6,-4.2401862e-6,1.8180694,-3.4941582,-860.31503)"
       cx="11"
       cy="1047.3622"
       fx="11"
       fy="1047.3622"
       r="4.1252885" />
  </defs>
  <sodipodi:namedview
     id="base"
     pagecolor="#ffffff"
     bordercolor="#666666"
     borderopacity="1.0"
     inkscape:pageopacity="0.0"
     inkscape:pageshadow="2"
     inkscape:zoom="0.78849406"
     inkscape:cx="784.53491"
     inkscape:cy="-10.228506"
     inkscape:document-units="px"
     inkscape:current-layer="g4236"
     showgrid="true"
     inkscape:snap-grids="true"
     inkscape:object-nodes="false"
     inkscape:snap-object-midpoints="false"
     inkscape:snap-center="true"
     inkscape:window-width="1920"
     inkscape:window-height="1014"
     inkscape:window-x="0"
     inkscape:window-y="37"
     inkscape:window-maximized="1"
     inkscape:snap-bbox="true"
     inkscape:bbox-nodes="true"
     inkscape:snap-nodes="true">
    <inkscape:grid
       empspacing="5"
       visible="true"
       enabled="true"
       snapvisiblegridlinesonly="true"
       type="xygrid"
       id="grid3012"
       spacingx="1px"
       spacingy="1px" />
  </sodipodi:namedview>
  <metadata
     id="metadata3009">
    <rdf:RDF>
      <cc:Work
         rdf:about="">
        <dc:format>image/svg+xml</dc:format>
        <dc:type
           rdf:resource="http://purl.org/dc/dcmitype/StillImage" />
        <dc:title />
      </cc:Work>
    </rdf:RDF>
  </metadata>
  <g
     inkscape:label="Layer 1"
     inkscape:groupmode="layer"
     id="layer1"
     transform="translate(0,-842.3622)">
    <g
       id="g3985"
       transform="matrix(9.9999998,0,0,9.9999998,0,-9461.2596)">
      <path
         sodipodi:type="arc"
         style="fill:url(#radialGradient6489);fill-opacity:1;stroke:none"
         id="path4014"
         sodipodi:cx="4.5"
         sodipodi:cy="12.5"
         sodipodi:rx="3.5"
         sodipodi:ry="3.5"
         d="M 8,12.5 C 8,14.432997 6.4329966,16 4.5,16 2.5670034,16 1,14.432997 1,12.5 1,10.567003 2.5670034,9 4.5,9 6.4329966,9 8,10.567003 8,12.5 z"
         transform="matrix(1.9285777,0,0,1.9285812,-1.9285777,1020.5049)" />
      <path
         inkscape:connector-curvature="0"
         style="fill:url(#radialGradient6491);fill-opacity:1;stroke:none;display:inline"
         d="m 12,1030.3622 c -4.8621029,0 -8.8294272,3.8514 -9,8.6719 0.853353,4.53 4.2698342,8.1389 8.671875,9.3281 0.107532,0 0.219665,0 0.328125,0 4.970562,0 9,-4.0295 9,-9 0,-4.9706 -4.029438,-9 -9,-9 z"
         id="path4018-7-4-3" />
      <path
         inkscape:connector-curvature="0"
         style="fill:url(#radialGradient6493);fill-opacity:1;stroke:none;display:inline"
         d="m 12,1030.3622 c -4.8621029,0 -8.8294272,3.8514 -9,8.6719 0.853353,4.53 4.2698342,8.1389 8.671875,9.3281 0.107532,0 0.219665,0 0.328125,0 4.970562,0 9,-4.0295 9,-9 0,-4.9706 -4.029438,-9 -9,-9 z"
         id="path4018-7-4-3-3" />
      <path
         style="fill:url(#radialGradient6495);fill-opacity:1;stroke:none;display:inline"
         d="m 20.953125,1038.9875 c -4.65192,0.9699 -8.358179,4.6762 -9.328125,9.3282 -0.003,0.015 0.003,0.033 0,0.046 1.208361,1.8243 3.272913,3 5.625,3 3.727921,0 6.75,-3.0221 6.75,-6.75 0,-2.3522 -1.175685,-4.4166 -3,-5.625 -0.01095,0 -0.03582,0 -0.04687,0 z"
         id="path4018-7-2"
         inkscape:connector-curvature="0" />
    </g>
    <g
       id="g4236"
       style="stroke:#424242;stroke-opacity:1"
       transform="matrix(9.9999998,0,0,9.9999998,99.999995,-9501.2598)">
      <path
         transform="matrix(0.79998258,0,0,0.79998258,8.1007485,1036.8624)"
         d="m 48,10 c 0,2.761424 -2.238576,5 -5,5 -2.761424,0 -5,-2.238576 -5,-5 0,-2.7614237 2.238576,-5 5,-5 2.761424,0 5,2.2385763 5,5 z"
         sodipodi:ry="5"
         sodipodi:rx="5"
         sodipodi:cy="10"
         sodipodi:cx="43"
         id="path3172"
         style="fill:none;stroke:#424242;stroke-width:1.25024486;stroke-linecap:round;stroke-miterlimit:4;stroke-opacity:1;stroke-dasharray:none"
         sodipodi:type="arc" />
      <path
         sodipodi:nodetypes="csc"
         inkscape:connector-curvature="0"
         id="path3172-2"
         d="m 52.499999,1048.862 c -2.209091,0 -3.999913,-1.7908 -3.999913,-3.9999 0,-2.2091 0,-3.9999 0,-3.9999"
         style="fill:none;stroke:#424242;stroke-width:1.00017416;stroke-linecap:round;stroke-miterlimit:4;stroke-opacity:1;display:inline" />
      <path
         sodipodi:nodetypes="cc"
         inkscape:connector-curvature="0"
         id="path4003"
         d="m 65.500003,1042.8622 -4e-6,5.9"
         style="fill:none;stroke:#424242;stroke-width:1px;stroke-linecap:round;stroke-linejoin:miter;stroke-opacity:1" />
      <path
         sodipodi:nodetypes="cccc"
         inkscape:connector-curvature="0"
         id="path3125-1-2"
         d="m 62.499998,1038.8622 0,7.5 c 0,6 -7.999999,6 -7.999999,0 l 0,-7.5"
         style="fill:none;stroke:#424242;stroke-width:1px;stroke-linecap:round;stroke-linejoin:miter;stroke-opacity:1;display:inline" />
      <g
         id="g3839"
         transform="translate(0.49991586,2.0897245e-5)"
         style="stroke:#424242;stroke-opacity:1">
        <path
           style="fill:none;stroke:#424242;stroke-width:1.00017416;stroke-linecap:round;stroke-miterlimit:4;stroke-opacity:1;display:inline"
           d="m 74.328365,1047.6906 c -0.723842,0.7238 -1.72382,1.1715 -2.828366,1.1715 -2.209091,0 -3.999913,-1.7908 -3.999913,-3.9999 0,-2.2091 1.790822,-3.9999 3.999913,-3.9999 1.104546,0 2.104524,0.4477 2.828366,1.1716 0.723842,0.7238 1.171547,1.7238 1.171547,2.8283"
           id="path3172-4"
           inkscape:connector-curvature="0"
           sodipodi:nodetypes="cssssc" />
        <path
           style="fill:none;stroke:#424242;stroke-width:1px;stroke-linecap:round;stroke-linejoin:miter;stroke-opacity:1"
           d="m 70.999999,1044.8622 4.5,0"
           id="path4181"
           inkscape:connector-curvature="0"
           sodipodi:nodetypes="cc" />
      </g>
      <g
         id="g3843"
         transform="translate(1.0000037,0)"
         style="stroke:#424242;stroke-opacity:1">
        <path
           style="fill:none;stroke:#424242;stroke-width:1px;stroke-linecap:round;stroke-linejoin:miter;stroke-opacity:1;display:inline"
           d="m 83.499999,1040.8622 0,5 c 0,4 -6,4 -6,0 l 0,-5"
           id="path3125-8-5-2"
           inkscape:connector-curvature="0"
           sodipodi:nodetypes="cccc" />
        <path
           style="fill:none;stroke:#424242;stroke-width:1px;stroke-linecap:round;stroke-linejoin:miter;stroke-opacity:1;display:inline"
           d="m 89.499999,1040.8622 0,5 c 0,4 -6,4 -6,0 l 0,-5"
           id="path3125-8-5-2-4"
           inkscape:connector-curvature="0"
           sodipodi:nodetypes="cccc" />
      </g>
      <g
         id="g3847"
         style="stroke:#424242;stroke-opacity:1">
        <path
           style="fill:none;stroke:#424242;stroke-width:1px;stroke-linecap:round;stroke-linejoin:miter;stroke-opacity:1;display:inline"
           d="m 28.5,1050.8622 0,-7.5 c 0,-6 8,-6 8,0 l 0,7.5"
           id="path3125-1"
           inkscape:connector-curvature="0"
           sodipodi:nodetypes="cccc" />
        <path
           style="fill:none;stroke:#424242;stroke-width:1px;stroke-linecap:round;stroke-linejoin:miter;stroke-opacity:1;display:inline"
           d="m 20.5,1050.8622 0,-7.5 c 0,-6 8,-6 8,0 l 0,7.5"
           id="path3125-1-8"
           inkscape:connector-curvature="0"
           sodipodi:nodetypes="cccc" />
      </g>
      <path
         sodipodi:type="arc"
         style="fill:#212121;fill-opacity:1;stroke:#424242;stroke-width:1;stroke-linecap:round;stroke-linejoin:round;stroke-miterlimit:4;stroke-opacity:1;stroke-dasharray:none"
         id="path3067"
         sodipodi:cx="65.5"
         sodipodi:cy="3.5"
         sodipodi:rx="0.5"
         sodipodi:ry="0.5"
         d="M 66,3.5 C 66,3.7761424 65.776142,4 65.5,4 65.223858,4 65,3.7761424 65,3.5 65,3.2238576 65.223858,3 65.5,3 65.776142,3 66,3.2238576 66,3.5 z"
         transform="translate(2.7231011e-6,1036.8622)" />
    </g>
  </g>
</svg>
